<svg xmlns="http://www.w3.org/2000/svg" width="900" height="312" role="img">
<rect width="100%" height="100%" fill="#ffffff"/>
<text x="24" y="26" font-family="Arial" font-size="18" font-weight="700">CP-Q4 Failure Taxonomy Summary</text>
<text x="24" y="62" font-family="Arial" font-size="13">fov or sample artifact</text>
<rect x="260" y="47" width="560" height="20" fill="#1f77b4"/>
<text x="828" y="62" font-family="Arial" font-size="13">189</text>
<text x="24" y="96" font-family="Arial" font-size="13">insufficient power</text>
<rect x="260" y="81" width="545" height="20" fill="#d62728"/>
<text x="813" y="96" font-family="Arial" font-size="13">184</text>
<text x="24" y="130" font-family="Arial" font-size="13">panel lacks downstream genes</text>
<rect x="260" y="115" width="151" height="20" fill="#2ca02c"/>
<text x="419" y="130" font-family="Arial" font-size="13">51</text>
<text x="24" y="164" font-family="Arial" font-size="13">labels not replicated</text>
<rect x="260" y="149" width="29" height="20" fill="#9467bd"/>
<text x="297" y="164" font-family="Arial" font-size="13">10</text>
<text x="24" y="198" font-family="Arial" font-size="13">expression absorbs signal</text>
<rect x="260" y="183" width="26" height="20" fill="#ff7f0e"/>
<text x="294" y="198" font-family="Arial" font-size="13">9</text>
<text x="24" y="232" font-family="Arial" font-size="13">access or schema blocker</text>
<rect x="260" y="217" width="14" height="20" fill="#17becf"/>
<text x="282" y="232" font-family="Arial" font-size="13">5</text>
<text x="24" y="266" font-family="Arial" font-size="13">lr without downstream response</text>
<rect x="260" y="251" width="2" height="20" fill="#7f7f7f"/>
<text x="270" y="266" font-family="Arial" font-size="13">1</text>
</svg>
